# xmcd CD database file
#
# Track frame offsets:
#	150
#	9980
#	25083
#	40185
#	55015
#	70638
#	90530
#	102963
#	122983
#	138033
#
# Disc length: 2095 seconds
#
# Revision: 1
# Processed by: cddbd v1.5.2PL0 Copyright (c) Steve Scherf et al.
# Submitted via: CDex 1.70beta2
#
DISCID=72082d0a
DTITLE=Kagrra, - 京
DYEAR=2004
DGENRE=Rock
TTITLE0=京
TTITLE1=幽現の人
TTITLE2=咒
TTITLE3=闇に散りけり・・・
TTITLE4=涅槃経
TTITLE5=冬幻境
TTITLE6=源平闘戰譚
TTITLE7=螺旋
TTITLE8=徒然謌
TTITLE9=愁 （京 MIX）
EXTD=YEAR: 2004
EXTT0=
EXTT1=
EXTT2=
EXTT3=
EXTT4=
EXTT5=
EXTT6=
EXTT7=
EXTT8=
EXTT9=
PLAYORDER=
